<?xml version="1.0" encoding="UTF-8" standalone="no"?>
<svg
   width="700pt"
   height="700pt"
   version="1.1"
   viewBox="0 0 700 700"
   id="svg145"
   sodipodi:docname="noun-breakfast.svg"
   inkscape:version="1.2.2 (b0a84865, 2022-12-01)"
   xmlns:inkscape="http://www.inkscape.org/namespaces/inkscape"
   xmlns:sodipodi="http://sodipodi.sourceforge.net/DTD/sodipodi-0.dtd"
   xmlns="http://www.w3.org/2000/svg"
   xmlns:svg="http://www.w3.org/2000/svg">
  <sodipodi:namedview
     id="namedview147"
     pagecolor="#ffffff"
     bordercolor="#000000"
     borderopacity="0.25"
     inkscape:showpageshadow="2"
     inkscape:pageopacity="0.0"
     inkscape:pagecheckerboard="0"
     inkscape:deskcolor="#d1d1d1"
     inkscape:document-units="pt"
     showgrid="false"
     inkscape:lockguides="false"
     inkscape:zoom="0.21899165"
     inkscape:cx="458.9216"
     inkscape:cy="347.04519"
     inkscape:window-width="1309"
     inkscape:window-height="456"
     inkscape:window-x="59"
     inkscape:window-y="54"
     inkscape:window-maximized="0"
     inkscape:current-layer="g143" />
  <defs
     id="defs59">
    <symbol
       id="s"
       overflow="visible">
      <path
         d="m18.766-1.125c-0.96875 0.5-1.9805 0.875-3.0312 1.125-1.043 0.25781-2.1367 0.39062-3.2812 0.39062-3.3984 0-6.0898-0.94531-8.0781-2.8438-1.9922-1.9062-2.9844-4.4844-2.9844-7.7344 0-3.2578 0.99219-5.8359 2.9844-7.7344 1.9883-1.9062 4.6797-2.8594 8.0781-2.8594 1.1445 0 2.2383 0.13281 3.2812 0.39062 1.0508 0.25 2.0625 0.625 3.0312 1.125v4.2188c-0.98047-0.65625-1.9453-1.1406-2.8906-1.4531-0.94922-0.3125-1.9492-0.46875-3-0.46875-1.875 0-3.3516 0.60547-4.4219 1.8125-1.0742 1.1992-1.6094 2.8555-1.6094 4.9688 0 2.1055 0.53516 3.7617 1.6094 4.9688 1.0703 1.1992 2.5469 1.7969 4.4219 1.7969 1.0508 0 2.0508-0.14844 3-0.45312 0.94531-0.3125 1.9102-0.80078 2.8906-1.4688z"
         id="path2" />
    </symbol>
    <symbol
       id="e"
       overflow="visible">
      <path
         d="m13.734-11.141c-0.4375-0.19531-0.87109-0.34375-1.2969-0.4375-0.41797-0.10156-0.83984-0.15625-1.2656-0.15625-1.2617 0-2.2305 0.40625-2.9062 1.2188-0.67969 0.80469-1.0156 1.9531-1.0156 3.4531v7.0625h-4.8906v-15.312h4.8906v2.5156c0.625-1 1.3438-1.7266 2.1562-2.1875 0.82031-0.46875 1.8008-0.70312 2.9375-0.70312 0.16406 0 0.34375 0.011719 0.53125 0.03125 0.19531 0.011719 0.47656 0.039062 0.84375 0.078125z"
         id="path5" />
    </symbol>
    <symbol
       id="a"
       overflow="visible">
      <path
         d="m17.641-7.7031v1.4062h-11.453c0.125 1.1484 0.53906 2.0078 1.25 2.5781 0.70703 0.57422 1.7031 0.85938 2.9844 0.85938 1.0312 0 2.082-0.14844 3.1562-0.45312 1.082-0.3125 2.1914-0.77344 3.3281-1.3906v3.7656c-1.1562 0.4375-2.3125 0.76562-3.4688 0.98438-1.1562 0.22656-2.3125 0.34375-3.4688 0.34375-2.7734 0-4.9297-0.70312-6.4688-2.1094-1.5312-1.4062-2.2969-3.3789-2.2969-5.9219 0-2.5 0.75391-4.4609 2.2656-5.8906 1.5078-1.4375 3.582-2.1562 6.2188-2.1562 2.4062 0 4.332 0.73047 5.7812 2.1875 1.4453 1.4492 2.1719 3.3828 2.1719 5.7969zm-5.0312-1.625c0-0.92578-0.27344-1.6719-0.8125-2.2344-0.54297-0.57031-1.25-0.85938-2.125-0.85938-0.94922 0-1.7188 0.26562-2.3125 0.79688s-0.96484 1.2969-1.1094 2.2969z"
         id="path8" />
    </symbol>
    <symbol
       id="d"
       overflow="visible">
      <path
         d="m9.2188-6.8906c-1.0234 0-1.793 0.17188-2.3125 0.51562-0.51172 0.34375-0.76562 0.85547-0.76562 1.5312 0 0.625 0.20703 1.1172 0.625 1.4688 0.41406 0.34375 0.98828 0.51562 1.7188 0.51562 0.92578 0 1.7031-0.32812 2.3281-0.98438 0.63281-0.66406 0.95312-1.4922 0.95312-2.4844v-0.5625zm7.4688-1.8438v8.7344h-4.9219v-2.2656c-0.65625 0.92969-1.3984 1.6055-2.2188 2.0312-0.82422 0.41406-1.8242 0.625-3 0.625-1.5859 0-2.8711-0.45703-3.8594-1.375-0.99219-0.92578-1.4844-2.1289-1.4844-3.6094 0-1.7891 0.61328-3.1016 1.8438-3.9375 1.2383-0.84375 3.1797-1.2656 5.8281-1.2656h2.8906v-0.39062c0-0.76953-0.30859-1.332-0.92188-1.6875-0.61719-0.36328-1.5703-0.54688-2.8594-0.54688-1.0547 0-2.0312 0.10547-2.9375 0.3125-0.89844 0.21094-1.7305 0.52344-2.5 0.9375v-3.7344c1.0391-0.25 2.0859-0.44141 3.1406-0.57812 1.0625-0.13281 2.125-0.20312 3.1875-0.20312 2.7578 0 4.75 0.54688 5.9688 1.6406 1.2266 1.0859 1.8438 2.8555 1.8438 5.3125z"
         id="path11" />
    </symbol>
    <symbol
       id="c"
       overflow="visible">
      <path
         d="m7.7031-19.656v4.3438h5.0469v3.5h-5.0469v6.5c0 0.71094 0.14062 1.1875 0.42188 1.4375s0.83594 0.375 1.6719 0.375h2.5156v3.5h-4.1875c-1.9375 0-3.3125-0.39844-4.125-1.2031-0.80469-0.8125-1.2031-2.1797-1.2031-4.1094v-6.5h-2.4219v-3.5h2.4219v-4.3438z"
         id="path14" />
    </symbol>
    <symbol
       id="b"
       overflow="visible">
      <path
         d="m12.766-13.078v-8.2031h4.9219v21.281h-4.9219v-2.2188c-0.66797 0.90625-1.4062 1.5703-2.2188 1.9844s-1.7578 0.625-2.8281 0.625c-1.8867 0-3.4336-0.75-4.6406-2.25-1.2109-1.5-1.8125-3.4258-1.8125-5.7812 0-2.3633 0.60156-4.2969 1.8125-5.7969 1.207-1.5 2.7539-2.25 4.6406-2.25 1.0625 0 2 0.21484 2.8125 0.64062 0.82031 0.42969 1.5664 1.0859 2.2344 1.9688zm-3.2188 9.9219c1.0391 0 1.8359-0.37891 2.3906-1.1406 0.55078-0.76953 0.82812-1.8828 0.82812-3.3438 0-1.457-0.27734-2.5664-0.82812-3.3281-0.55469-0.76953-1.3516-1.1562-2.3906-1.1562-1.043 0-1.8398 0.38672-2.3906 1.1562-0.55469 0.76172-0.82812 1.8711-0.82812 3.3281 0 1.4609 0.27344 2.5742 0.82812 3.3438 0.55078 0.76172 1.3477 1.1406 2.3906 1.1406z"
         id="path17" />
    </symbol>
    <symbol
       id="i"
       overflow="visible">
      <path
         d="m10.5-3.1562c1.0508 0 1.8516-0.37891 2.4062-1.1406 0.55078-0.76953 0.82812-1.8828 0.82812-3.3438 0-1.457-0.27734-2.5664-0.82812-3.3281-0.55469-0.76953-1.3555-1.1562-2.4062-1.1562-1.0547 0-1.8594 0.38672-2.4219 1.1562-0.55469 0.77344-0.82812 1.8828-0.82812 3.3281 0 1.4492 0.27344 2.5586 0.82812 3.3281 0.5625 0.77344 1.3672 1.1562 2.4219 1.1562zm-3.25-9.9219c0.67578-0.88281 1.4219-1.5391 2.2344-1.9688 0.82031-0.42578 1.7656-0.64062 2.8281-0.64062 1.8945 0 3.4453 0.75 4.6562 2.25 1.207 1.5 1.8125 3.4336 1.8125 5.7969 0 2.3555-0.60547 4.2812-1.8125 5.7812-1.2109 1.5-2.7617 2.25-4.6562 2.25-1.0625 0-2.0078-0.21094-2.8281-0.625-0.8125-0.42578-1.5586-1.0859-2.2344-1.9844v2.2188h-4.8906v-21.281h4.8906z"
         id="path20" />
    </symbol>
    <symbol
       id="h"
       overflow="visible">
      <path
         d="m0.34375-15.312h4.8906l4.125 10.391 3.5-10.391h4.8906l-6.4375 16.766c-0.64844 1.6953-1.4023 2.8828-2.2656 3.5625-0.86719 0.6875-2 1.0312-3.4062 1.0312h-2.8438v-3.2188h1.5312c0.83203 0 1.4375-0.13672 1.8125-0.40625 0.38281-0.26172 0.67969-0.73047 0.89062-1.4062l0.14062-0.42188z"
         id="path23" />
    </symbol>
    <symbol
       id="g"
       overflow="visible">
      <path
         d="m2.5781-20.406h6.6875l4.6562 10.922 4.6719-10.922h6.6875v20.406h-4.9844v-14.938l-4.7031 11.016h-3.3281l-4.7031-11.016v14.938h-4.9844z"
         id="path26" />
    </symbol>
    <symbol
       id="r"
       overflow="visible">
      <path
         d="m12.422-21.281v3.2188h-2.7031c-0.6875 0-1.1719 0.125-1.4531 0.375-0.27344 0.25-0.40625 0.6875-0.40625 1.3125v1.0625h4.1875v3.5h-4.1875v11.812h-4.8906v-11.812h-2.4375v-3.5h2.4375v-1.0625c0-1.6641 0.46094-2.8984 1.3906-3.7031 0.92578-0.80078 2.3672-1.2031 4.3281-1.2031z"
         id="path29" />
    </symbol>
    <symbol
       id="f"
       overflow="visible">
      <path
         d="m9.6406-12.188c-1.0859 0-1.9141 0.39062-2.4844 1.1719-0.57422 0.78125-0.85938 1.9062-0.85938 3.375s0.28516 2.5938 0.85938 3.375c0.57031 0.77344 1.3984 1.1562 2.4844 1.1562 1.0625 0 1.875-0.38281 2.4375-1.1562 0.57031-0.78125 0.85938-1.9062 0.85938-3.375s-0.28906-2.5938-0.85938-3.375c-0.5625-0.78125-1.375-1.1719-2.4375-1.1719zm0-3.5c2.6328 0 4.6914 0.71484 6.1719 2.1406 1.4766 1.418 2.2188 3.3867 2.2188 5.9062 0 2.5117-0.74219 4.4805-2.2188 5.9062-1.4805 1.418-3.5391 2.125-6.1719 2.125-2.6484 0-4.7148-0.70703-6.2031-2.125-1.4922-1.4258-2.2344-3.3945-2.2344-5.9062 0-2.5195 0.74219-4.4883 2.2344-5.9062 1.4883-1.4258 3.5547-2.1406 6.2031-2.1406z"
         id="path32" />
    </symbol>
    <symbol
       id="q"
       overflow="visible">
      <path
         d="m16.547-12.766c0.61328-0.94531 1.3477-1.6719 2.2031-2.1719 0.85156-0.5 1.7891-0.75 2.8125-0.75 1.7578 0 3.0977 0.54688 4.0156 1.6406 0.92578 1.0859 1.3906 2.6562 1.3906 4.7188v9.3281h-4.9219v-7.9844-0.35938c0.007813-0.13281 0.015625-0.32031 0.015625-0.5625 0-1.082-0.16406-1.8633-0.48438-2.3438-0.3125-0.48828-0.82422-0.73438-1.5312-0.73438-0.92969 0-1.6484 0.38672-2.1562 1.1562-0.51172 0.76172-0.77344 1.8672-0.78125 3.3125v7.5156h-4.9219v-7.9844c0-1.6953-0.14844-2.7852-0.4375-3.2656-0.29297-0.48828-0.8125-0.73438-1.5625-0.73438-0.9375 0-1.6641 0.38672-2.1719 1.1562-0.51172 0.76172-0.76562 1.8594-0.76562 3.2969v7.5312h-4.9219v-15.312h4.9219v2.2344c0.60156-0.86328 1.2891-1.5156 2.0625-1.9531 0.78125-0.4375 1.6406-0.65625 2.5781-0.65625 1.0625 0 2 0.25781 2.8125 0.76562 0.8125 0.51172 1.4258 1.2305 1.8438 2.1562z"
         id="path35" />
    </symbol>
    <symbol
       id="p"
       overflow="visible">
      <path
         d="m17.75-9.3281v9.3281h-4.9219v-7.1094c0-1.3438-0.03125-2.2656-0.09375-2.7656s-0.16797-0.86719-0.3125-1.1094c-0.1875-0.3125-0.44922-0.55469-0.78125-0.73438-0.32422-0.17578-0.69531-0.26562-1.1094-0.26562-1.0234 0-1.8242 0.39844-2.4062 1.1875-0.58594 0.78125-0.875 1.8711-0.875 3.2656v7.5312h-4.8906v-21.281h4.8906v8.2031c0.73828-0.88281 1.5195-1.5391 2.3438-1.9688 0.83203-0.42578 1.75-0.64062 2.75-0.64062 1.7695 0 3.1133 0.54688 4.0312 1.6406 0.91406 1.0859 1.375 2.6562 1.375 4.7188z"
         id="path38" />
    </symbol>
    <symbol
       id="o"
       overflow="visible">
      <path
         d="m2.5781-20.406h5.875l7.4219 14v-14h4.9844v20.406h-5.875l-7.4219-14v14h-4.9844z"
         id="path41" />
    </symbol>
    <symbol
       id="n"
       overflow="visible">
      <path
         d="m2.1875-5.9688v-9.3438h4.9219v1.5312c0 0.83594-0.007813 1.875-0.015625 3.125-0.011719 1.25-0.015625 2.0859-0.015625 2.5 0 1.2422 0.03125 2.1328 0.09375 2.6719 0.070313 0.54297 0.17969 0.93359 0.32812 1.1719 0.20703 0.32422 0.47266 0.57422 0.79688 0.75 0.32031 0.16797 0.69141 0.25 1.1094 0.25 1.0195 0 1.8203-0.39062 2.4062-1.1719 0.58203-0.78125 0.875-1.8672 0.875-3.2656v-7.5625h4.8906v15.312h-4.8906v-2.2188c-0.74219 0.89844-1.5234 1.5586-2.3438 1.9844-0.82422 0.41406-1.7344 0.625-2.7344 0.625-1.7617 0-3.1055-0.53906-4.0312-1.625-0.92969-1.082-1.3906-2.6602-1.3906-4.7344z"
         id="path44" />
    </symbol>
    <symbol
       id="m"
       overflow="visible">
      <path
         d="m17.75-9.3281v9.3281h-4.9219v-7.1406c0-1.3203-0.03125-2.2344-0.09375-2.7344s-0.16797-0.86719-0.3125-1.1094c-0.1875-0.3125-0.44922-0.55469-0.78125-0.73438-0.32422-0.17578-0.69531-0.26562-1.1094-0.26562-1.0234 0-1.8242 0.39844-2.4062 1.1875-0.58594 0.78125-0.875 1.8711-0.875 3.2656v7.5312h-4.8906v-15.312h4.8906v2.2344c0.73828-0.88281 1.5195-1.5391 2.3438-1.9688 0.83203-0.42578 1.75-0.64062 2.75-0.64062 1.7695 0 3.1133 0.54688 4.0312 1.6406 0.91406 1.0859 1.375 2.6562 1.375 4.7188z"
         id="path47" />
    </symbol>
    <symbol
       id="l"
       overflow="visible">
      <path
         d="m2.5781-20.406h8.7344c2.5938 0 4.582 0.57812 5.9688 1.7344 1.3945 1.1484 2.0938 2.7891 2.0938 4.9219 0 2.1367-0.69922 3.7812-2.0938 4.9375-1.3867 1.1562-3.375 1.7344-5.9688 1.7344h-3.4844v7.0781h-5.25zm5.25 3.8125v5.7031h2.9219c1.0195 0 1.8047-0.25 2.3594-0.75 0.5625-0.5 0.84375-1.2031 0.84375-2.1094 0-0.91406-0.28125-1.6172-0.84375-2.1094-0.55469-0.48828-1.3398-0.73438-2.3594-0.73438z"
         id="path50" />
    </symbol>
    <symbol
       id="k"
       overflow="visible">
      <path
         d="m2.3594-15.312h4.8906v15.031c0 2.0508-0.49609 3.6172-1.4844 4.7031-0.98047 1.082-2.4062 1.625-4.2812 1.625h-2.4219v-3.2188h0.85938c0.92578 0 1.5625-0.21094 1.9062-0.625 0.35156-0.41797 0.53125-1.2461 0.53125-2.4844zm0-5.9688h4.8906v4h-4.8906z"
         id="path53" />
    </symbol>
    <symbol
       id="j"
       overflow="visible">
      <path
         d="m14.719-14.828v3.9844c-0.65625-0.45703-1.3242-0.79688-2-1.0156-0.66797-0.21875-1.3594-0.32812-2.0781-0.32812-1.3672 0-2.4336 0.40234-3.2031 1.2031-0.76172 0.79297-1.1406 1.9062-1.1406 3.3438 0 1.4297 0.37891 2.543 1.1406 3.3438 0.76953 0.79297 1.8359 1.1875 3.2031 1.1875 0.75781 0 1.4844-0.10938 2.1719-0.32812 0.6875-0.22656 1.3203-0.56641 1.9062-1.0156v4c-0.76172 0.28125-1.5391 0.48828-2.3281 0.625-0.78125 0.14453-1.5742 0.21875-2.375 0.21875-2.7617 0-4.9219-0.70703-6.4844-2.125-1.5547-1.4141-2.3281-3.3828-2.3281-5.9062 0-2.5312 0.77344-4.5039 2.3281-5.9219 1.5625-1.4141 3.7227-2.125 6.4844-2.125 0.80078 0 1.5938 0.074219 2.375 0.21875 0.78125 0.13672 1.5547 0.35156 2.3281 0.64062z"
         id="path56" />
    </symbol>
  </defs>
  <g
     id="g143">
    <path
       d="m 301.12716,202.38848 c 3.32432,-25.78006 -8.31948,-49.94185 -29.94159,-64.44439 -22.45769,-14.4968 -49.90564,-15.30665 -73.19206,-2.41618 l -3.32432,2.41618 c -14.96783,8.05767 -33.26548,8.86119 -49.06947,1.61265 l -3.32432,-1.61265 c -24.11665,-11.27724 -51.564604,-8.05768 -72.357381,8.05767 -20.792777,16.1093 -29.941599,41.08094 -24.952818,66.85957 4.159744,18.52591 -1.665056,37.05757 -14.967829,50.75026 -18.297644,18.52592 -24.1166508,45.10864 -14.138346,69.27619 9.149119,24.16754 31.606507,41.08094 57.38955,43.49612 h 3.32432 c 17.468903,1.61265 32.436734,11.27723 40.755324,26.58272 l 1.66506,2.41618 c 12.47329,21.75093 34.93187,34.63521 60.71342,34.63521 h 3.32432 c 26.61773,-0.80351 49.90564,-16.1093 60.71343,-39.47275 l 1.66505,-3.2197 c 6.65443,-15.30665 21.62301,-26.58272 38.26168,-29.80343 l 3.32432,-0.80351 c 25.78156,-4.83236 46.57434,-23.3577 54.05825,-47.52525 7.48406,-24.16754 -0.82962,-50.75026 -20.79278,-67.66366 l -2.49468,-2.41618 C 305.293,237.8363 298.63842,220.91685 301.13355,204.80755 Z m 5.8248,59.60686 2.49469,2.41618 c 14.96783,12.88989 20.79278,32.2186 15.804,51.55437 -4.98878,19.33576 -20.79278,33.02845 -40.75533,36.24772 l -3.32432,0.80351 c -22.45768,4.02884 -41.58555,18.52592 -50.73438,38.66434 l -1.66505,3.2197 c -8.31949,17.72182 -25.78156,29.80343 -45.7456,30.61185 -20.79277,0.80351 -38.26168,-8.8612 -48.23924,-26.58272 l -1.66506,-2.41618 C 122.30765,377.17978 102.34985,364.2955 79.892165,361.87889 H 76.567846 C 56.605295,359.46271 39.971073,347.3821 32.487159,328.85044 c -7.484063,-18.52591 -3.32432,-38.66434 10.814026,-52.35703 16.632736,-17.72181 24.116651,-41.88936 19.12787,-65.24706 -4.159744,-19.33432 2.494687,-38.66433 19.127869,-50.75026 9.978751,-7.24854 20.792776,-11.27723 32.436736,-11.27723 7.48406,0 14.96783,1.61265 22.45768,4.83235 l 3.32432,1.61266 c 20.79278,9.66472 44.90943,8.8612 64.04324,-2.41618 l 2.49469,-1.61266 c 17.4689,-9.66471 38.26168,-9.66471 55.72464,1.61266 17.4689,11.27723 25.78156,28.99933 23.28791,49.13776 l -0.82962,3.2197 c -3.33011,20.14418 4.98938,41.89512 22.45769,56.3919 z"
       id="path61"
       style="stroke-width:1.46164" />
    <path
       d="m 197.99499,207.2217 c -19.12787,-4.83235 -39.09042,-3.2197 -56.55338,6.44502 -17.46891,9.66472 -29.9416,24.97021 -34.93187,43.49612 -4.99026,18.52591 -3.32432,37.86024 6.65443,54.77364 9.97875,16.91915 25.78156,28.99933 44.90943,33.83255 6.65443,1.61266 13.30872,2.41618 19.96255,2.41618 12.47329,0 24.95282,-3.2197 36.59677,-8.86119 17.46891,-9.66472 29.9416,-24.97021 34.93187,-43.49612 4.98938,-18.52592 3.32432,-37.86024 -6.65443,-54.77364 -9.97875,-16.91916 -25.78156,-28.99933 -44.91537,-33.83256 z m 35.76655,83.77297 c -4.15975,14.49679 -14.13835,26.58272 -27.44647,33.83256 -13.30871,7.24854 -29.11286,8.86119 -43.25046,4.83236 -14.96783,-4.02884 -27.44647,-13.69341 -34.93187,-26.58272 -7.48406,-12.88989 -9.14911,-28.19668 -4.98937,-41.88937 4.15974,-14.49678 14.13835,-26.58272 27.44647,-33.83255 8.31948,-4.83236 18.29764,-7.24854 28.27669,-7.24854 4.98937,0 10.81402,0.80351 15.80399,2.41618 14.96783,4.02884 27.44647,13.69341 34.93187,26.58272 5.8248,12.88989 8.31948,28.19667 4.15974,41.88936 z"
       id="path63"
       style="stroke-width:1.46164" />
    <path
       d="m 651.27753,282.13664 c -9.97875,-4.83235 -19.12787,-8.86119 -31.60651,-22.55503 -13.30871,-13.69341 -16.63273,-22.55504 -20.79277,-33.02846 -4.15975,-10.4737 -8.31949,-21.75093 -24.11666,-37.86023 -14.96782,-16.10931 -26.61772,-20.94253 -36.59677,-25.78007 -9.97875,-4.83235 -19.12787,-8.86119 -31.6065,-22.55503 C 493.2496,126.66441 489.92558,117.80278 485.76554,108.13921 481.6058,97.665507 477.44605,86.388277 461.64889,70.278976 446.68106,54.169674 435.03116,49.336452 425.05212,44.498915 415.07336,39.666556 405.92425,35.637721 393.44561,21.94388 c -3.32432,-3.219703 -8.31949,-3.219703 -11.64366,-0.803509 -0.82962,0.803509 -0.82962,0.803509 -0.82962,1.612656 -0.82961,0 -1.66505,0.803509 -1.66505,0.803509 l -69.03202,62.027786 c -3.32432,3.219703 -3.32432,8.057672 -0.82962,11.27723 14.96783,16.109298 26.61773,20.942528 36.59677,25.780058 9.97875,4.83236 19.12787,8.8612 31.60651,22.55504 13.30871,13.69341 16.63274,22.55504 20.79278,32.2186 4.15974,10.47371 8.31948,21.75094 24.11665,37.86024 14.96783,16.1093 26.61772,20.94253 36.59677,25.78006 9.97875,4.83236 19.12787,8.8612 31.60651,22.55504 13.30871,13.69341 16.63273,22.55503 20.79277,33.02845 4.16004,10.47342 8.31949,21.75094 24.11666,37.86024 14.96782,16.1093 26.61772,20.94252 36.59677,25.78006 9.97875,4.83236 19.12787,8.8612 31.6065,22.55504 1.66506,1.61265 4.15975,2.41618 5.8248,2.41618 1.66506,0 4.15975,-0.80351 5.8248,-2.41618 0,0 0,-0.80351 0.82962,-0.80351 0,0 0.82962,0 0.82962,-0.80351 l 34.93186,-31.41594 34.10164,-30.61185 0.82962,-0.80351 c 0.82962,0 0.82962,-0.8035 1.66505,-0.8035 3.32432,-3.21971 3.32432,-8.05768 0.82962,-11.27723 -16.63868,-13.70463 -27.4524,-19.34584 -38.26168,-24.17906 z M 386.79341,38.864472 c 12.47329,11.27723 21.623,16.109301 30.77182,20.138424 9.97875,4.832359 19.12787,8.861195 31.60651,22.555036 13.30871,13.693409 16.63273,22.555038 20.79277,32.218598 4.15975,10.47371 8.31949,21.75094 24.11665,37.86025 14.96783,16.1093 26.61773,20.94252 36.59678,25.78006 9.97875,4.83235 19.12787,8.86119 31.6065,22.55503 13.30872,13.69341 16.63274,22.55504 20.79278,33.02846 4.16004,10.47342 8.31949,21.75093 24.11665,37.86023 14.96783,16.10931 26.61773,20.94253 36.59677,25.78007 8.31949,4.02883 15.804,7.24853 25.78156,16.91915 l -24.11665,21.75094 c -12.47329,-11.27723 -21.623,-16.10931 -30.77182,-20.13843 -9.97875,-4.83236 -19.12787,-8.86119 -31.60651,-22.55503 -13.30871,-13.69341 -16.63274,-22.55504 -20.79278,-33.02846 -4.16004,-10.47342 -8.31948,-21.75094 -24.11665,-37.86024 -14.96783,-16.1093 -26.61772,-20.94252 -36.59677,-25.78006 -9.97875,-4.83236 -19.12787,-8.86119 -31.60651,-22.55503 -13.30871,-13.69341 -16.63273,-22.55504 -20.79277,-32.21861 -4.15975,-10.47371 -8.31949,-21.75094 -24.11665,-37.86024 C 410.08726,87.205321 398.43736,82.3721 388.45831,77.534562 380.13883,73.505727 372.65432,70.286024 362.67675,60.615409 Z M 578.91866,347.38514 c -9.97875,-4.83236 -19.12786,-8.86119 -31.6065,-22.55504 -12.47329,-13.69341 -16.63274,-22.55503 -20.79278,-33.02845 -4.16004,-10.47342 -8.31949,-21.75094 -24.11665,-37.86024 -14.96783,-16.1093 -26.61772,-20.94252 -36.59677,-25.78006 -9.97875,-4.83236 -19.12787,-8.86119 -31.60651,-22.55503 -13.30871,-13.69341 -16.63273,-22.55504 -20.79278,-32.21861 -4.15974,-10.4737 -8.31948,-21.75093 -24.11665,-37.86024 -14.96783,-16.1093 -26.61772,-20.94252 -36.59677,-25.78006 -8.31949,-4.02883 -15.80399,-7.24854 -25.78156,-16.919153 L 351.02834,71.07732 c 12.47329,11.27723 21.62301,16.109301 30.77183,20.138425 9.97875,4.832359 19.12787,8.861195 31.6065,22.555035 13.30872,13.69341 16.63274,22.55504 20.79278,32.21861 4.15975,10.4737 8.31949,21.75093 24.11665,37.86023 14.96783,16.10931 26.61773,20.94253 36.59678,25.78006 9.97875,4.83236 19.12787,8.8612 31.6065,22.55504 13.30872,13.69341 16.63274,22.55504 20.79278,33.02846 4.16004,10.47341 8.31949,21.75093 24.11665,37.86023 14.96783,16.1093 26.61772,20.94253 36.59677,25.78006 8.31949,4.02884 15.804,7.24854 25.78156,16.91916 l -24.11665,21.75093 c -12.47329,-11.27723 -21.623,-16.1093 -30.77183,-20.13842 z"
       id="path65"
       style="stroke-width:1.46164" />
    <path
       d="m 514.0452,371.55125 c 0,-0.80351 -0.82962,-0.80351 -0.82962,-1.61266 l -64.87346,-67.66367 c -3.32432,-3.2197 -8.31949,-3.2197 -11.64366,-0.8035 -16.63273,14.49678 -21.623,25.78006 -26.61772,35.44506 -4.98938,9.66472 -9.14912,18.52591 -23.28791,30.61185 -14.13835,12.88988 -23.28791,16.1093 -33.26548,20.13842 -10.81402,4.02884 -22.45768,8.05767 -39.09042,23.3577 -16.63273,14.49678 -21.623,25.78006 -26.61772,35.44506 -4.98938,9.66472 -9.14912,18.52591 -23.28791,30.61185 -14.13835,12.88988 -23.28791,16.1093 -34.10164,20.13842 -10.81403,4.02884 -22.45769,8.05767 -39.09042,23.3577 -16.63274,14.49678 -21.62301,25.78006 -26.61773,35.44506 -4.98937,9.66472 -9.14912,18.52591 -23.28791,30.61185 -3.32432,3.2197 -3.32432,8.05767 -0.82961,11.27723 0,0 0.82961,0 0.82961,0.8035 0,0 0,0.80351 0.82962,0.80351 l 32.43673,33.83256 31.60651,33.02845 c 0,0 0.82961,0.80351 0.82961,0.80351 0,0.80351 0.82962,0.80351 0.82962,1.61266 1.66506,1.61265 4.15974,2.41618 5.8248,2.41618 1.66506,0 4.15974,-0.80351 5.8248,-2.41618 16.63274,-14.49679 21.623,-25.78006 26.61773,-35.44507 4.98937,-9.66472 9.14911,-18.52591 23.28791,-30.61184 14.13834,-12.88989 23.28791,-16.1093 34.10163,-20.13843 10.81373,-4.02912 22.45769,-8.05767 39.09043,-23.35769 16.63273,-14.49679 21.623,-25.78006 26.61772,-35.44507 4.98938,-9.66472 9.14912,-18.52591 23.28791,-30.61184 14.13835,-12.88989 23.28791,-16.1093 33.26547,-20.13843 10.81403,-4.02883 22.45769,-8.05767 39.09042,-23.35769 16.63274,-15.30664 21.62301,-25.78006 26.61773,-35.44507 4.98937,-9.66472 9.14912,-18.52591 23.28791,-30.61184 3.32432,-3.21971 3.32432,-8.05767 0.82962,-11.27723 -0.82962,0.006 -1.66506,-0.80351 -1.66506,-0.80351 z M 178.86564,564.07459 c 4.98937,-9.66472 9.14911,-18.52591 23.28791,-30.61184 14.13834,-12.88989 23.28791,-16.10931 34.10164,-20.13843 10.81372,-4.02912 22.45768,-8.05767 39.09042,-23.3577 16.63273,-14.49678 21.623,-25.78006 26.61772,-35.44506 4.98938,-9.66472 9.14912,-18.52591 23.28791,-30.61184 14.13835,-12.88989 23.28791,-16.10931 33.26547,-20.13843 10.81403,-4.02884 22.45769,-8.05767 39.09042,-23.3577 16.63274,-14.49678 21.62301,-25.78006 26.61773,-35.44506 4.15974,-8.05767 7.48406,-15.30664 17.4689,-24.97021 l 22.45769,23.3577 c -11.64366,12.08075 -16.63274,20.94252 -20.79278,29.80343 -4.98938,9.66471 -9.14912,18.52591 -23.28791,30.61184 -14.13835,12.88989 -23.28791,16.1093 -33.26547,20.13843 -10.81403,4.02883 -22.45769,8.05767 -39.09042,23.35769 -16.63274,14.49679 -21.62301,25.78006 -26.61773,35.44507 -4.98937,9.66471 -9.14912,18.52591 -23.28791,30.61184 -14.13834,12.88989 -23.28791,16.1093 -34.10164,20.13843 -10.81373,4.02912 -22.45768,8.05767 -39.09042,23.35769 -16.63274,14.49679 -21.623,25.78006 -26.61772,35.44507 -4.15975,8.05767 -7.48407,15.30664 -17.46891,24.9702 l -22.45768,-23.35769 c 11.64366,-12.08075 16.63273,-20.94252 20.79278,-29.80343 z M 476.6182,407.80041 c -4.98937,9.66472 -9.14912,18.52592 -23.28791,30.61185 -14.13834,12.88988 -23.28791,16.1093 -33.26547,20.13842 -10.81403,4.02884 -22.45769,8.05767 -39.09042,23.3577 -16.63274,14.49679 -21.623,25.78006 -26.61773,35.44506 -4.98937,9.66472 -9.14912,18.52592 -23.28791,30.61185 -14.13834,12.88988 -23.28791,16.1093 -34.10164,20.13842 -10.81373,4.02913 -22.45768,8.05767 -39.09042,23.3577 -16.63273,14.49679 -21.623,25.78006 -26.61772,35.44506 -4.15975,8.05768 -7.48407,15.30665 -17.46891,24.97021 l -22.45768,-23.35769 c 11.64366,-12.08076 16.63274,-20.94253 20.79278,-29.80343 4.98937,-9.66472 9.14912,-18.52592 23.28791,-30.61185 14.13834,-12.88988 23.28791,-16.1093 34.10164,-20.13842 10.81373,-4.02913 22.45768,-8.05767 39.09042,-23.3577 16.63273,-14.49679 21.623,-25.78006 26.61772,-35.44506 4.98938,-9.66472 9.14912,-18.52592 23.28791,-30.61185 14.13835,-12.88988 23.28791,-16.1093 33.26548,-20.13842 10.81402,-4.02884 22.45768,-8.05767 39.09042,-23.3577 16.63273,-14.49679 21.623,-25.78006 26.61772,-35.44506 4.15975,-8.05768 7.48406,-15.30664 17.4689,-24.97021 l 22.45769,23.35769 c -11.64366,11.27723 -15.804,20.94253 -20.79278,29.80343 z"
       id="path67"
       style="stroke-width:1.46164" />
  </g>
</svg>
