<?xml version="1.0" encoding="UTF-8" standalone="no"?>
<svg
   width="700pt"
   height="700pt"
   version="1.1"
   viewBox="0 0 700 700"
   id="svg157"
   sodipodi:docname="noun_pizza.svg"
   inkscape:version="1.2.2 (b0a84865, 2022-12-01)"
   xmlns:inkscape="http://www.inkscape.org/namespaces/inkscape"
   xmlns:sodipodi="http://sodipodi.sourceforge.net/DTD/sodipodi-0.dtd"
   xmlns="http://www.w3.org/2000/svg"
   xmlns:svg="http://www.w3.org/2000/svg">
  <sodipodi:namedview
     id="namedview159"
     pagecolor="#ffffff"
     bordercolor="#000000"
     borderopacity="0.25"
     inkscape:showpageshadow="2"
     inkscape:pageopacity="0.0"
     inkscape:pagecheckerboard="0"
     inkscape:deskcolor="#d1d1d1"
     inkscape:document-units="pt"
     showgrid="false"
     inkscape:zoom="0.17673962"
     inkscape:cx="681.79395"
     inkscape:cy="628.04256"
     inkscape:window-width="1309"
     inkscape:window-height="456"
     inkscape:window-x="0"
     inkscape:window-y="38"
     inkscape:window-maximized="0"
     inkscape:current-layer="g155" />
  <defs
     id="defs59">
    <symbol
       id="s"
       overflow="visible">
      <path
         d="m18.766-1.125c-0.96875 0.5-1.9805 0.875-3.0312 1.125-1.043 0.25781-2.1367 0.39062-3.2812 0.39062-3.3984 0-6.0898-0.94531-8.0781-2.8438-1.9922-1.9062-2.9844-4.4844-2.9844-7.7344 0-3.2578 0.99219-5.8359 2.9844-7.7344 1.9883-1.9062 4.6797-2.8594 8.0781-2.8594 1.1445 0 2.2383 0.13281 3.2812 0.39062 1.0508 0.25 2.0625 0.625 3.0312 1.125v4.2188c-0.98047-0.65625-1.9453-1.1406-2.8906-1.4531-0.94922-0.3125-1.9492-0.46875-3-0.46875-1.875 0-3.3516 0.60547-4.4219 1.8125-1.0742 1.1992-1.6094 2.8555-1.6094 4.9688 0 2.1055 0.53516 3.7617 1.6094 4.9688 1.0703 1.1992 2.5469 1.7969 4.4219 1.7969 1.0508 0 2.0508-0.14844 3-0.45312 0.94531-0.3125 1.9102-0.80078 2.8906-1.4688z"
         id="path2" />
    </symbol>
    <symbol
       id="e"
       overflow="visible">
      <path
         d="m13.734-11.141c-0.4375-0.19531-0.87109-0.34375-1.2969-0.4375-0.41797-0.10156-0.83984-0.15625-1.2656-0.15625-1.2617 0-2.2305 0.40625-2.9062 1.2188-0.67969 0.80469-1.0156 1.9531-1.0156 3.4531v7.0625h-4.8906v-15.312h4.8906v2.5156c0.625-1 1.3438-1.7266 2.1562-2.1875 0.82031-0.46875 1.8008-0.70312 2.9375-0.70312 0.16406 0 0.34375 0.011719 0.53125 0.03125 0.19531 0.011719 0.47656 0.039062 0.84375 0.078125z"
         id="path5" />
    </symbol>
    <symbol
       id="a"
       overflow="visible">
      <path
         d="m17.641-7.7031v1.4062h-11.453c0.125 1.1484 0.53906 2.0078 1.25 2.5781 0.70703 0.57422 1.7031 0.85938 2.9844 0.85938 1.0312 0 2.082-0.14844 3.1562-0.45312 1.082-0.3125 2.1914-0.77344 3.3281-1.3906v3.7656c-1.1562 0.4375-2.3125 0.76562-3.4688 0.98438-1.1562 0.22656-2.3125 0.34375-3.4688 0.34375-2.7734 0-4.9297-0.70312-6.4688-2.1094-1.5312-1.4062-2.2969-3.3789-2.2969-5.9219 0-2.5 0.75391-4.4609 2.2656-5.8906 1.5078-1.4375 3.582-2.1562 6.2188-2.1562 2.4062 0 4.332 0.73047 5.7812 2.1875 1.4453 1.4492 2.1719 3.3828 2.1719 5.7969zm-5.0312-1.625c0-0.92578-0.27344-1.6719-0.8125-2.2344-0.54297-0.57031-1.25-0.85938-2.125-0.85938-0.94922 0-1.7188 0.26562-2.3125 0.79688s-0.96484 1.2969-1.1094 2.2969z"
         id="path8" />
    </symbol>
    <symbol
       id="d"
       overflow="visible">
      <path
         d="m9.2188-6.8906c-1.0234 0-1.793 0.17188-2.3125 0.51562-0.51172 0.34375-0.76562 0.85547-0.76562 1.5312 0 0.625 0.20703 1.1172 0.625 1.4688 0.41406 0.34375 0.98828 0.51562 1.7188 0.51562 0.92578 0 1.7031-0.32812 2.3281-0.98438 0.63281-0.66406 0.95312-1.4922 0.95312-2.4844v-0.5625zm7.4688-1.8438v8.7344h-4.9219v-2.2656c-0.65625 0.92969-1.3984 1.6055-2.2188 2.0312-0.82422 0.41406-1.8242 0.625-3 0.625-1.5859 0-2.8711-0.45703-3.8594-1.375-0.99219-0.92578-1.4844-2.1289-1.4844-3.6094 0-1.7891 0.61328-3.1016 1.8438-3.9375 1.2383-0.84375 3.1797-1.2656 5.8281-1.2656h2.8906v-0.39062c0-0.76953-0.30859-1.332-0.92188-1.6875-0.61719-0.36328-1.5703-0.54688-2.8594-0.54688-1.0547 0-2.0312 0.10547-2.9375 0.3125-0.89844 0.21094-1.7305 0.52344-2.5 0.9375v-3.7344c1.0391-0.25 2.0859-0.44141 3.1406-0.57812 1.0625-0.13281 2.125-0.20312 3.1875-0.20312 2.7578 0 4.75 0.54688 5.9688 1.6406 1.2266 1.0859 1.8438 2.8555 1.8438 5.3125z"
         id="path11" />
    </symbol>
    <symbol
       id="c"
       overflow="visible">
      <path
         d="m7.7031-19.656v4.3438h5.0469v3.5h-5.0469v6.5c0 0.71094 0.14062 1.1875 0.42188 1.4375s0.83594 0.375 1.6719 0.375h2.5156v3.5h-4.1875c-1.9375 0-3.3125-0.39844-4.125-1.2031-0.80469-0.8125-1.2031-2.1797-1.2031-4.1094v-6.5h-2.4219v-3.5h2.4219v-4.3438z"
         id="path14" />
    </symbol>
    <symbol
       id="b"
       overflow="visible">
      <path
         d="m12.766-13.078v-8.2031h4.9219v21.281h-4.9219v-2.2188c-0.66797 0.90625-1.4062 1.5703-2.2188 1.9844s-1.7578 0.625-2.8281 0.625c-1.8867 0-3.4336-0.75-4.6406-2.25-1.2109-1.5-1.8125-3.4258-1.8125-5.7812 0-2.3633 0.60156-4.2969 1.8125-5.7969 1.207-1.5 2.7539-2.25 4.6406-2.25 1.0625 0 2 0.21484 2.8125 0.64062 0.82031 0.42969 1.5664 1.0859 2.2344 1.9688zm-3.2188 9.9219c1.0391 0 1.8359-0.37891 2.3906-1.1406 0.55078-0.76953 0.82812-1.8828 0.82812-3.3438 0-1.457-0.27734-2.5664-0.82812-3.3281-0.55469-0.76953-1.3516-1.1562-2.3906-1.1562-1.043 0-1.8398 0.38672-2.3906 1.1562-0.55469 0.76172-0.82812 1.8711-0.82812 3.3281 0 1.4609 0.27344 2.5742 0.82812 3.3438 0.55078 0.76172 1.3477 1.1406 2.3906 1.1406z"
         id="path17" />
    </symbol>
    <symbol
       id="i"
       overflow="visible">
      <path
         d="m10.5-3.1562c1.0508 0 1.8516-0.37891 2.4062-1.1406 0.55078-0.76953 0.82812-1.8828 0.82812-3.3438 0-1.457-0.27734-2.5664-0.82812-3.3281-0.55469-0.76953-1.3555-1.1562-2.4062-1.1562-1.0547 0-1.8594 0.38672-2.4219 1.1562-0.55469 0.77344-0.82812 1.8828-0.82812 3.3281 0 1.4492 0.27344 2.5586 0.82812 3.3281 0.5625 0.77344 1.3672 1.1562 2.4219 1.1562zm-3.25-9.9219c0.67578-0.88281 1.4219-1.5391 2.2344-1.9688 0.82031-0.42578 1.7656-0.64062 2.8281-0.64062 1.8945 0 3.4453 0.75 4.6562 2.25 1.207 1.5 1.8125 3.4336 1.8125 5.7969 0 2.3555-0.60547 4.2812-1.8125 5.7812-1.2109 1.5-2.7617 2.25-4.6562 2.25-1.0625 0-2.0078-0.21094-2.8281-0.625-0.8125-0.42578-1.5586-1.0859-2.2344-1.9844v2.2188h-4.8906v-21.281h4.8906z"
         id="path20" />
    </symbol>
    <symbol
       id="h"
       overflow="visible">
      <path
         d="m0.34375-15.312h4.8906l4.125 10.391 3.5-10.391h4.8906l-6.4375 16.766c-0.64844 1.6953-1.4023 2.8828-2.2656 3.5625-0.86719 0.6875-2 1.0312-3.4062 1.0312h-2.8438v-3.2188h1.5312c0.83203 0 1.4375-0.13672 1.8125-0.40625 0.38281-0.26172 0.67969-0.73047 0.89062-1.4062l0.14062-0.42188z"
         id="path23" />
    </symbol>
    <symbol
       id="g"
       overflow="visible">
      <path
         d="m2.5781-20.406h6.6875l4.6562 10.922 4.6719-10.922h6.6875v20.406h-4.9844v-14.938l-4.7031 11.016h-3.3281l-4.7031-11.016v14.938h-4.9844z"
         id="path26" />
    </symbol>
    <symbol
       id="r"
       overflow="visible">
      <path
         d="m12.422-21.281v3.2188h-2.7031c-0.6875 0-1.1719 0.125-1.4531 0.375-0.27344 0.25-0.40625 0.6875-0.40625 1.3125v1.0625h4.1875v3.5h-4.1875v11.812h-4.8906v-11.812h-2.4375v-3.5h2.4375v-1.0625c0-1.6641 0.46094-2.8984 1.3906-3.7031 0.92578-0.80078 2.3672-1.2031 4.3281-1.2031z"
         id="path29" />
    </symbol>
    <symbol
       id="f"
       overflow="visible">
      <path
         d="m9.6406-12.188c-1.0859 0-1.9141 0.39062-2.4844 1.1719-0.57422 0.78125-0.85938 1.9062-0.85938 3.375s0.28516 2.5938 0.85938 3.375c0.57031 0.77344 1.3984 1.1562 2.4844 1.1562 1.0625 0 1.875-0.38281 2.4375-1.1562 0.57031-0.78125 0.85938-1.9062 0.85938-3.375s-0.28906-2.5938-0.85938-3.375c-0.5625-0.78125-1.375-1.1719-2.4375-1.1719zm0-3.5c2.6328 0 4.6914 0.71484 6.1719 2.1406 1.4766 1.418 2.2188 3.3867 2.2188 5.9062 0 2.5117-0.74219 4.4805-2.2188 5.9062-1.4805 1.418-3.5391 2.125-6.1719 2.125-2.6484 0-4.7148-0.70703-6.2031-2.125-1.4922-1.4258-2.2344-3.3945-2.2344-5.9062 0-2.5195 0.74219-4.4883 2.2344-5.9062 1.4883-1.4258 3.5547-2.1406 6.2031-2.1406z"
         id="path32" />
    </symbol>
    <symbol
       id="q"
       overflow="visible">
      <path
         d="m16.547-12.766c0.61328-0.94531 1.3477-1.6719 2.2031-2.1719 0.85156-0.5 1.7891-0.75 2.8125-0.75 1.7578 0 3.0977 0.54688 4.0156 1.6406 0.92578 1.0859 1.3906 2.6562 1.3906 4.7188v9.3281h-4.9219v-7.9844-0.35938c0.007813-0.13281 0.015625-0.32031 0.015625-0.5625 0-1.082-0.16406-1.8633-0.48438-2.3438-0.3125-0.48828-0.82422-0.73438-1.5312-0.73438-0.92969 0-1.6484 0.38672-2.1562 1.1562-0.51172 0.76172-0.77344 1.8672-0.78125 3.3125v7.5156h-4.9219v-7.9844c0-1.6953-0.14844-2.7852-0.4375-3.2656-0.29297-0.48828-0.8125-0.73438-1.5625-0.73438-0.9375 0-1.6641 0.38672-2.1719 1.1562-0.51172 0.76172-0.76562 1.8594-0.76562 3.2969v7.5312h-4.9219v-15.312h4.9219v2.2344c0.60156-0.86328 1.2891-1.5156 2.0625-1.9531 0.78125-0.4375 1.6406-0.65625 2.5781-0.65625 1.0625 0 2 0.25781 2.8125 0.76562 0.8125 0.51172 1.4258 1.2305 1.8438 2.1562z"
         id="path35" />
    </symbol>
    <symbol
       id="p"
       overflow="visible">
      <path
         d="m17.75-9.3281v9.3281h-4.9219v-7.1094c0-1.3438-0.03125-2.2656-0.09375-2.7656s-0.16797-0.86719-0.3125-1.1094c-0.1875-0.3125-0.44922-0.55469-0.78125-0.73438-0.32422-0.17578-0.69531-0.26562-1.1094-0.26562-1.0234 0-1.8242 0.39844-2.4062 1.1875-0.58594 0.78125-0.875 1.8711-0.875 3.2656v7.5312h-4.8906v-21.281h4.8906v8.2031c0.73828-0.88281 1.5195-1.5391 2.3438-1.9688 0.83203-0.42578 1.75-0.64062 2.75-0.64062 1.7695 0 3.1133 0.54688 4.0312 1.6406 0.91406 1.0859 1.375 2.6562 1.375 4.7188z"
         id="path38" />
    </symbol>
    <symbol
       id="o"
       overflow="visible">
      <path
         d="m2.5781-20.406h5.875l7.4219 14v-14h4.9844v20.406h-5.875l-7.4219-14v14h-4.9844z"
         id="path41" />
    </symbol>
    <symbol
       id="n"
       overflow="visible">
      <path
         d="m2.1875-5.9688v-9.3438h4.9219v1.5312c0 0.83594-0.007813 1.875-0.015625 3.125-0.011719 1.25-0.015625 2.0859-0.015625 2.5 0 1.2422 0.03125 2.1328 0.09375 2.6719 0.070313 0.54297 0.17969 0.93359 0.32812 1.1719 0.20703 0.32422 0.47266 0.57422 0.79688 0.75 0.32031 0.16797 0.69141 0.25 1.1094 0.25 1.0195 0 1.8203-0.39062 2.4062-1.1719 0.58203-0.78125 0.875-1.8672 0.875-3.2656v-7.5625h4.8906v15.312h-4.8906v-2.2188c-0.74219 0.89844-1.5234 1.5586-2.3438 1.9844-0.82422 0.41406-1.7344 0.625-2.7344 0.625-1.7617 0-3.1055-0.53906-4.0312-1.625-0.92969-1.082-1.3906-2.6602-1.3906-4.7344z"
         id="path44" />
    </symbol>
    <symbol
       id="m"
       overflow="visible">
      <path
         d="m17.75-9.3281v9.3281h-4.9219v-7.1406c0-1.3203-0.03125-2.2344-0.09375-2.7344s-0.16797-0.86719-0.3125-1.1094c-0.1875-0.3125-0.44922-0.55469-0.78125-0.73438-0.32422-0.17578-0.69531-0.26562-1.1094-0.26562-1.0234 0-1.8242 0.39844-2.4062 1.1875-0.58594 0.78125-0.875 1.8711-0.875 3.2656v7.5312h-4.8906v-15.312h4.8906v2.2344c0.73828-0.88281 1.5195-1.5391 2.3438-1.9688 0.83203-0.42578 1.75-0.64062 2.75-0.64062 1.7695 0 3.1133 0.54688 4.0312 1.6406 0.91406 1.0859 1.375 2.6562 1.375 4.7188z"
         id="path47" />
    </symbol>
    <symbol
       id="l"
       overflow="visible">
      <path
         d="m2.5781-20.406h8.7344c2.5938 0 4.582 0.57812 5.9688 1.7344 1.3945 1.1484 2.0938 2.7891 2.0938 4.9219 0 2.1367-0.69922 3.7812-2.0938 4.9375-1.3867 1.1562-3.375 1.7344-5.9688 1.7344h-3.4844v7.0781h-5.25zm5.25 3.8125v5.7031h2.9219c1.0195 0 1.8047-0.25 2.3594-0.75 0.5625-0.5 0.84375-1.2031 0.84375-2.1094 0-0.91406-0.28125-1.6172-0.84375-2.1094-0.55469-0.48828-1.3398-0.73438-2.3594-0.73438z"
         id="path50" />
    </symbol>
    <symbol
       id="k"
       overflow="visible">
      <path
         d="m2.3594-15.312h4.8906v15.031c0 2.0508-0.49609 3.6172-1.4844 4.7031-0.98047 1.082-2.4062 1.625-4.2812 1.625h-2.4219v-3.2188h0.85938c0.92578 0 1.5625-0.21094 1.9062-0.625 0.35156-0.41797 0.53125-1.2461 0.53125-2.4844zm0-5.9688h4.8906v4h-4.8906z"
         id="path53" />
    </symbol>
    <symbol
       id="j"
       overflow="visible">
      <path
         d="m14.719-14.828v3.9844c-0.65625-0.45703-1.3242-0.79688-2-1.0156-0.66797-0.21875-1.3594-0.32812-2.0781-0.32812-1.3672 0-2.4336 0.40234-3.2031 1.2031-0.76172 0.79297-1.1406 1.9062-1.1406 3.3438 0 1.4297 0.37891 2.543 1.1406 3.3438 0.76953 0.79297 1.8359 1.1875 3.2031 1.1875 0.75781 0 1.4844-0.10938 2.1719-0.32812 0.6875-0.22656 1.3203-0.56641 1.9062-1.0156v4c-0.76172 0.28125-1.5391 0.48828-2.3281 0.625-0.78125 0.14453-1.5742 0.21875-2.375 0.21875-2.7617 0-4.9219-0.70703-6.4844-2.125-1.5547-1.4141-2.3281-3.3828-2.3281-5.9062 0-2.5312 0.77344-4.5039 2.3281-5.9219 1.5625-1.4141 3.7227-2.125 6.4844-2.125 0.80078 0 1.5938 0.074219 2.375 0.21875 0.78125 0.13672 1.5547 0.35156 2.3281 0.64062z"
         id="path56" />
    </symbol>
  </defs>
  <g
     id="g155"
     transform="translate(5.9322031,-5.9322034)">
    <path
       d="m 429.46886,291.90299 c -4.7259,4.68627 -12.64636,4.70705 -17.68107,0.0464 -5.03472,-4.66063 -5.28531,-12.24535 -0.5594,-16.93162 4.72591,-4.68626 12.64177,-4.70251 17.67648,-0.0418 5.03471,4.66064 5.28989,12.2408 0.56399,16.92707"
       id="path61"
       style="stroke-width:1.68037" />
    <path
       d="m 226.88399,375.78406 c -4.72591,4.68626 -12.63688,4.70703 -17.67161,0.0464 -5.03958,-4.66514 -5.28986,-12.2408 -0.56396,-16.92706 4.73048,-4.6908 12.64145,-4.71159 17.68105,-0.0464 5.03471,4.66064 5.28501,12.23628 0.55452,16.9271"
       id="path63"
       style="stroke-width:1.68037" />
    <path
       d="m 417.19866,476.21495 c -4.7259,4.68625 -12.64634,4.70705 -17.68106,0.0464 -5.03471,-4.66062 -5.28529,-12.24534 -0.5594,-16.9316 4.72592,-4.68626 12.64634,-4.70707 17.68105,-0.0464 5.03471,4.66064 5.28531,12.24536 0.55941,16.93162"
       id="path65"
       style="stroke-width:1.68037" />
    <path
       d="m 261.31214,182.94877 c -4.72589,4.68625 -12.64174,4.70251 -17.67645,0.0418 -5.03472,-4.66065 -5.28501,-12.23629 -0.55911,-16.92256 4.73049,-4.6908 12.64146,-4.71158 17.67618,-0.051 5.03471,4.66064 5.28987,12.24082 0.55938,16.93162"
       id="path67"
       style="stroke-width:1.68037" />
    <path
       d="m 120.58545,595.50583 c -4.73048,4.6908 -12.64145,4.71157 -17.68104,0.0465 -5.034712,-4.66064 -5.285022,-12.23628 -0.55452,-16.9271 4.7259,-4.68626 12.63686,-4.70703 17.67158,-0.0464 5.03958,4.66516 5.28989,12.2408 0.56398,16.92706"
       id="path69"
       style="stroke-width:1.68037" />
    <path
       d="M 521.8884,166.6366 C 410.36062,63.395345 319.13411,39.539444 274.08439,34.450731 257.02166,32.542509 240.34604,42.350979 234.0658,57.997995 L 205.94422,132.95932 18.973175,627.68462 c -5.009707,13.03553 -1.156539,26.70196 9.362555,36.4395 10.519593,9.73798 25.56501,12.30606 38.990124,7.06042 L 569.94511,468.65478 647.17252,439.15073 c 16.10495,-6.55114 25.76449,-22.85598 22.48258,-39.78034 C 662.13841,357.05624 633.41618,269.87786 521.89089,166.63892 Z M 57.947331,654.92401 c -6.715093,2.62485 -12.897884,0.68793 -17.810224,-3.85943 -4.912325,-4.54735 -6.488565,-11.05219 -4.638128,-16.92102 L 222.47004,139.41827 c 2.50719,-6.5201 9.17469,-10.43923 16.67534,-9.80916 36.84765,3.81024 112.9829,23.79528 206.27573,110.15644 93.99175,87.00818 118.16241,159.87407 123.40129,195.02555 0.91484,7.16064 -2.94868,13.68417 -9.65896,16.30425 z M 639.15016,422.88545 590.14041,441.89677 c -0.0861,-2.60699 -0.17197,-5.20491 -0.2581,-7.8119 C 583.19519,396.33484 558.89671,319.56348 459.9936,228.00887 361.79445,137.10593 281.53042,115.8259 241.96786,112.02046 c -2.72239,0.007 -5.43532,0.015 -8.15769,0.0214 L 251.2993,65.11205 c 3.12107,-8.470309 11.81143,-13.053845 20.66831,-12.427103 42.33134,5.099331 128.72637,27.009767 236.75071,127.007903 108.01931,99.99347 135.25042,183.27577 142.02711,223.62672 0.95809,8.46868 -4.22389,16.29022 -11.59527,19.56586 z"
       id="path71"
       style="stroke-width:1.68037" />
    <path
       d="m 344.129,322.73183 c 23.70299,-23.50418 22.4122,-62.57303 -2.83966,-85.94867 -25.25187,-23.37564 -66.04999,-23.26853 -89.75297,0.23566 -23.70301,23.50419 -22.41222,62.57302 2.83965,85.94867 25.25619,23.37133 65.39274,23.92026 89.75298,-0.23566 z m -78.56008,-72.72307 c 16.46041,-16.32234 45.02226,-16.39734 62.55827,-0.16425 17.53602,16.23307 18.43967,43.5843 1.97926,59.90665 -16.4604,16.32235 -45.02226,16.39734 -62.55828,0.16426 -17.53167,-16.23739 -19.0969,-42.93258 -1.97925,-59.90666 z"
       id="path73"
       style="stroke-width:1.68037" />
    <path
       d="m 348.85778,404.11506 c -24.55292,-22.72864 -62.62766,-22.6275 -85.67341,0.22495 -23.04575,22.85245 -21.84109,59.31454 2.71057,82.04201 24.55167,22.72747 62.62766,22.62751 85.67343,-0.22494 23.74188,-22.20128 21.84108,-59.31456 -2.71059,-82.04202 z m -69.79568,69.21025 c -16.83581,-15.58492 -17.64836,-40.32472 -1.84989,-55.99069 15.80318,-15.67063 41.63818,-15.73381 58.46901,-0.15352 16.83582,15.58492 17.64833,40.32474 1.84986,55.9907 -15.79515,15.67127 -41.63315,15.73844 -58.46898,0.15351 z"
       id="path75"
       style="stroke-width:1.68037" />
    <path
       d="m 494.57374,348.3834 c -20.33927,-18.82806 -52.97951,-18.74351 -72.07242,0.18925 -19.0929,18.93276 -18.06025,50.1883 2.28027,69.01751 20.33926,18.82807 52.97952,18.74353 72.07241,-0.18923 19.0929,-18.93276 18.06403,-50.18483 -2.28026,-69.01753 z m -56.62384,56.14889 c -12.6234,-11.6855 -13.27314,-31.21922 -1.41977,-42.97316 11.84915,-11.74977 32.24734,-11.80751 44.87527,-0.11784 12.62344,11.6855 13.27318,31.21921 1.4198,42.97318 -11.85339,11.75395 -32.24734,11.8075 -44.8753,0.11783 z"
       id="path77"
       style="stroke-width:1.68037" />
    <path
       d="m 206.10661,487.83903 c -18.94014,-17.53291 -48.15304,-16.8027 -65.27069,0.17137 -17.11767,16.97408 -16.17115,45.62286 2.06505,62.50412 18.2362,16.88124 48.15306,16.8027 65.27071,-0.1714 17.11766,-16.97408 16.87508,-44.97122 -2.06507,-62.50409 z m -50.03847,49.61877 c -11.22417,-10.39022 -11.0795,-26.67008 -1.20466,-36.46209 9.87482,-9.792 27.55587,-9.83844 38.07598,-0.10001 11.22417,10.39022 11.07951,26.67009 1.20466,36.46209 -9.87895,9.79609 -26.85142,10.49055 -38.07598,0.10001 z"
       id="path79"
       style="stroke-width:1.68037" />
  </g>
</svg>
